<svg width="300" height="300" viewBox="0 0 300 300" fill="none" xmlns="http://www.w3.org/2000/svg">
<path d="M251.392 257.391C251.355 269.862 241.254 279.963 228.783 280H70.5234C58.0526 279.963 47.9521 269.862 47.9149 257.391V119.276L31.9533 130.885C26.9025 134.556 19.8321 133.438 16.1612 128.387C12.4902 123.336 13.6087 116.266 18.6594 112.595L143.006 22.1607C146.97 19.2798 152.337 19.2798 156.3 22.1607L280.647 112.595C284.61 115.474 286.267 120.577 284.753 125.234C283.239 129.892 278.898 133.045 274 133.044C271.616 133.042 269.294 132.287 267.365 130.885L251.392 119.269V257.391Z" fill="black" stroke="black" stroke-width="20" stroke-miterlimit="10" stroke-linejoin="round"/>
<path d="M251.39 105.347V257.39C251.353 269.861 241.252 279.961 228.781 279.998H70.5214C58.0505 279.961 47.95 269.861 47.9128 257.39V105.347L149.651 31.3042L251.39 105.347Z" fill="url(#paint0_linear_8_2)"/>
<path d="M183.564 282.998H186.564V279.998V178.26C186.564 170.36 180.16 163.956 172.26 163.956H127.043C119.143 163.956 112.739 170.36 112.739 178.26V279.998V282.998H115.739H183.564Z" fill="url(#paint1_linear_8_2)" stroke="black" stroke-width="6"/>
<path d="M273.996 138.044H274C281.063 138.046 287.325 133.498 289.508 126.78C291.692 120.062 289.301 112.702 283.586 108.55L159.241 18.117L159.24 18.1163C153.524 13.9612 145.782 13.9612 140.067 18.1164L140.066 18.117L15.7198 108.55C15.7194 108.551 15.719 108.551 15.7186 108.551C8.43503 113.846 6.82249 124.043 12.1166 131.327C17.4111 138.611 27.6085 140.224 34.8929 134.93L34.8943 134.929L149.654 51.4605L264.424 134.929L264.426 134.93C267.208 136.952 270.558 138.042 273.996 138.044Z" fill="url(#paint2_linear_8_2)" stroke="black" stroke-width="10"/>
<defs>
<linearGradient id="paint0_linear_8_2" x1="149.651" y1="48.1363" x2="149.651" y2="276.517" gradientUnits="userSpaceOnUse">
<stop stop-color="#FFEEB1"/>
<stop offset="1" stop-color="#FFE0C7"/>
</linearGradient>
<linearGradient id="paint1_linear_8_2" x1="149.651" y1="164.31" x2="149.651" y2="279.264" gradientUnits="userSpaceOnUse">
<stop stop-color="#FF7A09"/>
<stop offset="1" stop-color="#FFA300"/>
</linearGradient>
<linearGradient id="paint2_linear_8_2" x1="14" y1="-73.8286" x2="3269.69" y2="1151.14" gradientUnits="userSpaceOnUse">
<stop stop-color="#FFD809"/>
<stop offset="1" stop-color="#FFA300"/>
</linearGradient>
</defs>
</svg>
