<svg width="2021" height="743" viewBox="0 0 2021 743" fill="none" xmlns="http://www.w3.org/2000/svg">
<g clip-path="url(#clip0_14_1736)">
<rect width="2021" height="743" fill="#636363"/>
<g opacity="0.49">
<path d="M2187.5 -15.4404L3.15424 824.698L-40.5548 680.705L2187.5 -15.4404Z" fill="url(#paint0_linear_14_1736)"/>
<path d="M2022.72 0.477539L1520.25 726.891L1629.08 771.428L2022.72 0.477539Z" fill="url(#paint1_linear_14_1736)"/>
<path d="M2021 -0.0527344L-0.000607133 144.461L-0.000729203 -0.0527344H2021Z" fill="url(#paint2_linear_14_1736)"/>
</g>
<path d="M899.231 168.84C894.744 173.371 888.305 174.629 885.995 174.964C879.467 175.911 877.908 173.554 870.379 174.526C865.419 175.167 861.683 176.761 858.203 178.244C853.162 180.393 852.316 181.564 847.35 183.93C847.35 183.93 841.889 186.534 834.644 188.522C821.688 192.079 802.458 190.538 786.413 184.037C775.65 179.677 773.606 176 766.59 176.56C759.648 177.115 757.28 181.067 747.049 181.71C740.892 182.097 736.208 181.015 734.824 180.668C732.416 180.066 731.971 179.622 730.435 179.163C721.41 176.468 714.411 183.856 703.259 183.24C699.048 183.009 697.802 181.83 692.694 180.244C670.077 173.218 656.693 184.545 642.416 177.103C635.791 173.649 630.147 167.082 631.143 161.062C632.505 152.843 646.019 146.446 656.795 147.009C665.077 147.442 667.66 151.771 673.523 150.314C679.307 148.875 680.015 143.86 686.397 136.89C692.061 130.706 699.324 126.115 704.483 123.972C724.866 115.51 744.91 131.781 756.598 123.466C762.428 119.318 758.195 114.733 766.014 107.062C775.315 97.9391 788.893 96.9834 789.644 96.9398C790.576 96.8861 805.132 96.2272 815.164 104.654C819.764 108.518 821.855 112.736 823.356 115.862C828.138 125.807 824.698 129.66 828.292 132.314C835.153 137.383 848.557 123.976 869.054 126.628C885.165 128.714 895.225 139.372 896.593 140.866C901.356 146.062 902.592 150.515 902.857 151.538C903.452 153.835 905.656 162.355 899.231 168.84Z" fill="#E9F4F6"/>
<path d="M815.957 126.012C821.325 131.312 824.274 136.575 825.909 140.209C836.359 135.584 845.578 133.505 851.713 132.482C862.566 130.673 872.589 129.001 883.197 132.848C891.864 135.992 896.995 141.398 899.497 144.516C898.419 141.617 893.49 129.498 878.921 123.19C869.823 119.251 860.857 119.233 857.842 119.296C849.775 119.464 843.936 121.139 842.585 121.567C837.524 123.171 833.794 125.304 831.407 126.897C830.579 122.75 828.227 114.729 820.584 107.175C817.609 104.234 809.419 96.085 795.115 94.0897C792.114 93.6705 781.59 92.3241 771.445 96.8848C762.954 100.701 758.179 106.224 756.346 108.515C754.944 110.269 753.956 111.843 753.29 113.012C749.018 110.856 735.646 104.739 717.942 106.548C714.695 106.88 693.267 109.365 680.394 125.198C674.17 132.854 672.508 140.477 671.985 144.687C669.428 143.527 664.527 141.678 658.089 141.567C656.164 141.533 645.018 141.342 637.548 148.017C630.127 154.649 630.888 163.987 631.162 164.04C631.36 164.079 631.582 159.761 635.509 155.636C639.188 151.773 644.024 150.281 645.428 149.865C652.807 147.675 659.303 149.324 661.822 149.998C668.843 151.872 673.081 155.576 674.854 157.338C676.455 154.307 679.232 149.667 683.739 144.614C689.817 137.799 700.485 125.842 716.317 124.694C724.059 124.132 731.032 126.302 737.168 128.21C743.236 130.096 747.957 132.385 751.212 134.187C755.881 128.693 764.054 121.064 776.831 116.526C782.243 114.605 787.558 112.782 794.304 113.59C804.629 114.824 811.261 121.374 815.957 126.012Z" fill="white"/>
<path d="M849.976 184.763C856.198 181.321 854.988 181.271 859.323 178.709C870.373 172.178 887.112 181.066 897.995 173.558C901.95 170.828 904.716 166.22 905.074 161.606C905.342 158.145 904.201 155.341 903.345 153.71C903.05 155.442 902.019 159.812 897.689 163.641C896.899 164.339 889.997 170.236 879.838 169.235C873.332 168.594 869.111 165.482 867.64 164.284C863.703 166.758 856.387 170.481 846.816 170.633C839.829 170.746 834.581 168.851 828.611 166.841C820.599 164.143 814.703 160.667 810.898 158.048C809.34 159.455 800.366 167.283 785.969 167.456C768.005 167.672 757.71 155.771 756.88 154.776C754.542 161.104 747.697 164.486 742.266 163.386C737.424 162.406 735.194 158.162 734.879 157.538C729.692 167.687 718.131 174.056 706.257 173.558C694.343 173.06 686.988 165.851 685.667 164.51C682.694 168.278 677.306 170.063 672.443 168.997C666.552 167.704 664.468 162.89 664.306 162.498C663.938 163.086 659.029 171.425 648.091 172.542C640.3 173.338 634.577 169.948 633.291 169.144C634.995 173.008 637.355 175.166 638.877 176.316C652.01 186.239 681.697 180.758 690.006 182.924C690.562 183.07 693.397 183.789 697.393 184.301C698.192 184.403 699.069 184.478 700.149 184.524C710.807 184.971 717.354 181.46 726.019 182.894C727.495 183.139 727.927 183.36 730.238 183.685C731.567 183.873 736.059 184.462 741.93 184.354C751.687 184.175 753.872 182.28 760.492 182.101C767.035 181.923 771.806 183.367 779.556 186.008C788.512 189.059 797.768 192.213 806.971 193.296C829.26 195.919 847.764 185.987 849.976 184.763Z" fill="#CEEAF0"/>
<path d="M193.065 262.371C201.639 257.909 210.349 253.855 219.378 250.292C212.565 248.831 207.039 249.076 206.432 249.111C205.148 249.185 188.202 250.364 178.583 261.041C174.212 265.894 172.552 271.367 171.062 274.638C178.766 271.551 185.834 266.133 193.065 262.371Z" fill="#F2F7F8"/>
<path d="M332.479 300.881C328.601 298.343 324.508 297.751 322.769 297.516C312.894 296.183 307.806 301.362 303.798 299.07C300.799 297.355 303.238 294.276 300.228 288.674C299.898 288.057 295.914 280.931 286.711 278.067C279.086 275.695 271.992 277.527 269.128 278.267C258.301 281.064 255.008 287.117 251.231 285.753C247.884 284.546 249.593 279.563 246.168 271.412C245.463 269.736 242.592 263.312 236.512 258.203C232.808 255.091 228.579 253.032 224.486 251.672C208.37 257.673 193.203 265.285 178.987 274.02C163.261 283.681 144.735 278.121 126.552 279.56C114.014 280.552 103.378 285.916 93.5742 292.105C89.0588 294.955 86.7372 297.908 83.1371 301.403C82.232 302.28 80.6896 304.042 79.0864 304.387C75.464 305.17 69.7635 302.856 65.2785 300.958C66.3135 303.569 68.2556 304.91 67.7686 305.38C67.2206 305.908 64.6169 304.349 60.9742 303.274C56.5907 301.981 52.8729 302.05 50.5594 302.058C48.7857 302.065 41.5225 302.221 34.3953 305.779C34.2431 305.854 34.0179 305.968 33.7297 306.118C32.3011 306.864 19.5768 313.775 19.6336 324.684C19.6661 331.029 24.015 337.042 29.5958 340.3C36.0087 344.044 39.7367 341.635 52.4873 345.833C60.063 348.328 59.1863 349.322 66.1451 351.472C76.3853 354.634 85.3086 354.651 90.5261 354.621C97.0749 354.584 104.636 354.542 113.523 351.794C123.384 348.746 129.178 344.13 136.654 346.016C138.62 346.512 138.712 347.012 141.827 347.79C143.461 348.197 148.98 349.473 156.236 349.017C168.294 348.259 171.085 343.601 179.267 342.947C188.726 342.191 193.617 348.695 202.629 351.759C234.401 362.555 279.486 356.546 292.541 338.915C295.074 335.494 295.528 332.815 299.721 330.194C309.886 323.843 321.403 330.585 332.077 324.144C333.1 323.527 339.298 319.662 339.862 313.458C340.514 306.292 333.171 301.332 332.479 300.881Z" fill="#F2F7F8"/>
<path d="M332.719 330.204C323.26 334.051 305.318 328.12 301.243 330.917C300.103 331.7 299.208 332.599 299.208 332.599C297.477 334.458 297.438 336.183 292.614 340.602C284.665 347.88 275.494 351.272 275.123 350.842C274.579 350.213 285.043 346.029 293.915 336.096C297.726 331.831 310.613 317.404 304.655 301.976C301.055 292.655 292.452 287.828 290.849 286.957C275.811 278.807 259.107 284.276 257.946 284.677C251.217 286.991 246.878 290.561 244.619 292.729C243.241 289.722 239.66 283.153 231.353 277.928C223.045 272.702 214.643 271.734 210.077 271.261C194.396 269.637 182.175 274.892 178.66 276.453C168.641 280.904 167.081 284.95 161.928 287.494C160.648 288.126 159.014 288.711 157.019 289.144C155.006 289.58 153.285 289.679 152.144 289.694C147.613 282.818 138.6 279.999 132.009 282.252C125.909 284.337 124.029 290.033 123.78 290.836C122.02 289.914 118.826 288.525 114.603 288.26C108.423 287.871 103.859 290.123 101.168 291.451C90.2523 296.837 86.2869 306.664 85.1646 309.865C82.5772 308.606 78.9426 307.347 75.3587 308.209C70.9387 309.272 70.2588 312.677 66.9286 312.91C62.7339 313.202 60.9805 307.996 55.7285 305.288C51.9275 303.329 45.4537 302.246 33.73 306.121C37.0054 304.52 43.0063 302.124 50.5597 302.062C52.9198 302.041 56.662 301.877 60.9744 303.277C62.0906 303.639 62.9855 304.018 63.6065 304.305C63.2757 303.299 62.9043 301.678 63.1742 299.709C63.2859 298.893 63.6837 296.263 65.918 293.876C69.1874 290.383 75.3952 288.468 79.9715 289.836C83.255 290.819 84.9191 293.259 85.6517 292.848C86.3803 292.439 84.29 290.272 84.5193 287.283C84.846 283.004 89.6881 280.2 90.3619 279.821C91.6039 279.124 95.7033 276.821 100.409 278.059C103.382 278.84 105.089 280.639 105.745 281.419C105.641 279.769 105.625 275.215 109.203 270.742C109.891 269.88 114.842 263.91 124.129 263.082C131.177 262.453 136.34 265.178 137.766 265.954C142.048 268.288 144.228 271.308 145.165 272.829C145.657 271.964 147.002 269.917 149.831 268.734C154.649 266.719 159.43 268.827 159.978 269.08C163.588 270.747 164.893 273.557 165.224 274.352C165.936 270.877 168.146 263.032 176.008 256.132C184.771 248.442 198.859 243.4 212.884 245.753C225.551 247.877 233.16 255.049 236.51 258.208C242.746 264.087 245.488 269.858 246.166 271.417C247.944 275.498 248.585 279.119 248.822 281.704C252.258 279.528 258.823 276.03 268.026 274.866C271.913 274.375 278.863 273.569 286.792 276.179C295.169 278.936 299.693 283.877 301.663 286.087C306.085 291.05 307.715 295.963 308.379 298.77C310.863 297.927 316.271 296.436 322.769 297.521C330.408 298.797 339.424 303.609 341.48 311.849C343.241 318.911 339.607 327.404 332.719 330.204Z" fill="white"/>
<path d="M325.649 305.502C317.515 301.659 308.401 304.096 305.558 304.855C296.785 307.201 297.176 310.578 290.41 311.378C282.587 312.303 280.82 307.935 272.824 308.777C265.471 309.55 264.998 313.516 257.218 314.431C251.816 315.067 251.018 313.278 241.313 311.857C237.295 311.269 228.447 310.036 218.286 311.604C214.217 312.233 208.107 313.591 201.199 316.879C198.907 319.916 193.779 326.894 183.448 330.067C175.584 332.481 166.47 333.134 158.204 332.683C152.372 332.364 127.698 329.762 125.101 321.925C117.292 327.07 109.178 332.354 99.2871 334.155C94.3699 335.05 83.8618 336.853 73.1507 332.347C68.0346 330.196 64.6151 327.33 62.5918 325.322C59.7527 326.443 54.5595 328.045 48.1751 327.488C32.9242 326.155 25.4947 313.767 24.9346 312.795C23.2766 314.721 20.1777 318.89 19.6379 324.684C19.4958 326.199 18.7429 336.631 28.8391 343.793C38.5639 350.691 50.4033 348.915 51.8726 348.672C55.4423 351.274 70.273 361.477 92.6266 361.36C117.858 361.228 133.638 348.047 136.429 345.632C137.675 346.69 146.162 353.659 159.367 353.063C171.976 352.495 179.344 345.461 180.55 344.272C185.398 346.724 192.856 350.104 202.504 352.936C212.374 355.833 248.934 366.561 282.22 351.6C288.178 348.922 297.335 343.935 306.193 334.768C318.688 338.313 330.988 334.371 334.941 327.411C337.898 322.205 335.98 315.674 332.849 311.447C331.999 310.306 329.855 307.489 325.649 305.502Z" fill="#CEEAF0"/>
<path d="M293.185 333.767C292.777 334.572 291.555 336.682 285.887 340.845C281.583 344.007 276.365 347.84 268.217 350.483C264.053 351.833 246.168 357.633 236.401 351.078C231.755 347.961 231.303 343.633 226.668 343.166C222.493 342.745 220.34 346.065 216.149 345.241C212.744 344.572 210.516 341.663 209.712 339.534C207.535 333.762 213.241 326.883 219.825 324.609C221.008 324.2 223.344 323.325 226.396 323.652C230.107 324.047 232.496 325.924 233.314 326.629C233.361 325.88 233.718 321.547 238.051 318.688C243.984 314.773 251.564 317.456 251.909 317.583C254.407 318.509 256.033 319.879 256.934 320.778C257.719 319.388 260.715 314.525 267.387 312.327C275.651 309.604 285.615 312.266 290.798 318.179C294.843 322.795 295.614 328.979 293.185 333.767Z" fill="white"/>
<path d="M292.57 334.938C292.732 335.064 288.485 340.201 282.336 344.432C267.306 354.774 243.11 359.006 234.978 351.967C232.559 349.873 232.273 347.396 228.594 346.107C224.163 344.554 220.772 346.811 216.145 345.24C213.103 344.205 211.232 342.096 210.106 340.414C211.476 341.118 213.966 342.168 217.268 342.336C224.09 342.681 228.77 338.972 229.606 338.286C233.43 340.904 240.855 345.201 251.469 346.814C256.54 347.586 270.439 349.026 282.236 342.691C288.302 339.437 292.414 334.817 292.57 334.938Z" fill="#CEEAF0"/>
<path d="M1512.4 320.342C1500.09 329.477 1482.85 327.305 1478.59 326.668C1471.9 335.524 1464.68 340.638 1459.82 343.507C1430.65 360.749 1392.86 352.706 1377.11 349.354C1368.41 347.502 1361.48 345.297 1357.02 343.735C1353.63 345.549 1342.63 350.917 1328.09 349.312C1318.6 348.266 1311.81 344.717 1308.37 342.612C1286.78 351.998 1267.93 354.467 1256.51 355.179C1237.62 356.356 1214.31 357.914 1199.53 344.677C1197.8 343.133 1186.8 332.961 1188.41 318.895C1188.71 316.228 1190.45 304.826 1201.47 298.482C1208.9 294.204 1217.12 294.202 1219.07 294.201C1221.7 294.199 1225.46 294.195 1229.91 295.601C1233.7 296.796 1236.4 298.511 1236.97 297.942C1237.53 297.393 1235.1 295.732 1234.17 292.392C1233.9 291.416 1233.04 288.455 1234.67 286.057C1237.34 282.125 1244.32 282.242 1245.17 282.263C1251.02 282.408 1254.54 285.541 1255.76 284.46C1256.69 283.634 1254.57 281.864 1254.64 278.406C1254.65 277.855 1254.77 274.216 1257.74 271.623C1260.71 269.034 1265.27 268.441 1268.72 269.085C1273.38 269.957 1274.88 272.882 1276.83 272.197C1278.89 271.476 1277.8 268.035 1279.49 263.24C1279.99 261.807 1282.29 254.974 1288.83 252.376C1296.34 249.393 1303.96 252.868 1305.06 253.386C1312.64 256.977 1314.57 263.826 1318.03 263.165C1320.14 262.763 1319.76 260.288 1322.94 258.752C1326.2 257.179 1330.62 257.843 1333.52 259.204C1339.74 262.111 1339.43 268.379 1342.12 268.491C1345.49 268.632 1345.84 258.767 1353.01 250.62C1363.16 239.095 1380.84 237.942 1382.18 237.872C1383.33 237.811 1401.23 237.099 1413.45 247.978C1419.74 253.573 1422.66 260.575 1423.38 262.401C1426.86 271.281 1425.03 276.682 1428.5 278.02C1432.43 279.531 1435.93 272.981 1447.25 270.024C1450.24 269.242 1457.66 267.305 1465.59 269.941C1475.15 273.124 1479.23 280.897 1479.57 281.569C1482.65 287.676 1480.07 291.003 1483.18 292.89C1487.33 295.41 1492.69 289.824 1502.98 291.346C1504.79 291.614 1509.05 292.29 1513.07 295.074C1513.79 295.572 1521.39 301.015 1520.63 308.795C1520.06 314.655 1515.08 318.352 1512.4 320.342Z" fill="#E9F4F6"/>
<path d="M1513.18 294.953C1511.92 294.05 1508.12 291.948 1503.01 291.192C1497.59 290.388 1493.54 291.541 1490.3 292.466C1487.33 293.308 1485.19 293.92 1483.28 292.761C1481.75 291.832 1481.66 290.562 1481.53 288.64C1481.4 286.793 1481.24 284.497 1479.73 281.506C1479.3 280.642 1475.21 272.975 1465.65 269.796C1457.67 267.14 1450.33 269.056 1447.2 269.875C1441.38 271.393 1437.59 273.877 1434.81 275.691C1432.16 277.429 1430.4 278.578 1428.58 277.877C1426.75 277.174 1426.46 275.285 1425.99 272.157C1425.6 269.565 1425.11 266.337 1423.55 262.35C1422.53 259.758 1419.52 253.158 1413.58 247.868C1401.2 236.849 1382.94 237.674 1382.17 237.714C1366.94 238.505 1357.35 246.711 1352.87 250.524C1347.97 254.695 1344.89 258.913 1343.04 261.895C1342.12 260.88 1338.78 257.454 1333 256.52C1331.69 256.309 1328.04 255.765 1323.99 257.315C1320.89 258.499 1319.05 260.333 1318.22 261.291C1317.6 259.569 1315.52 254.576 1309.68 251.35C1301.69 246.933 1292.93 249.305 1290.5 249.96C1283.61 251.827 1279.45 255.776 1277.57 257.911C1274.76 261.115 1273.53 264.285 1272.95 266.26C1271.52 265.886 1269.15 265.432 1266.25 265.664C1264.55 265.799 1259.68 266.187 1256.09 269.64C1253.16 272.458 1252.72 275.74 1252.63 276.994C1247.63 276.741 1240.62 276.775 1232.47 278.127C1226.86 279.055 1219.34 280.278 1212.22 283.951C1196.32 292.154 1190.6 308.244 1191.43 308.701C1191.92 308.969 1194.22 303.524 1201.33 300.376C1207.1 297.821 1215.37 297.074 1221.62 299.199C1222.79 299.6 1227.72 301.4 1231.28 302.726C1233.7 303.622 1234.16 303.82 1235.08 304.048C1236.85 304.484 1240.85 305.426 1245.31 304.466C1254.15 302.562 1258.01 294.636 1258.58 293.43C1261.05 293.108 1269.51 291.737 1275.8 285.301C1279.31 281.705 1280.73 277.965 1281.35 275.738C1283.03 277.021 1285.95 278.929 1290.11 280.157C1292.04 280.726 1297.92 282.386 1304.28 280.721C1314.76 277.976 1318.42 268.331 1318.77 267.354C1319.57 266.695 1323.27 263.808 1328.84 263.877C1330.12 263.894 1334.09 264.1 1337.38 266.534C1341.74 269.77 1341.23 274.229 1343.1 274.338C1344.87 274.439 1346.23 270.536 1349.06 264.893C1351.61 259.82 1354.51 255.025 1355.98 252.982C1363.58 242.474 1380.3 240.224 1381.75 240.045C1383.44 239.838 1401.17 237.898 1413.32 248.086C1415.42 249.845 1420.43 255.376 1423.21 262.453C1424.76 266.411 1425.25 269.621 1425.64 272.201C1426.11 275.325 1426.42 277.389 1428.43 278.163C1430.45 278.94 1432.37 277.681 1435.03 275.94C1437.78 274.141 1441.55 271.676 1447.3 270.174C1450.4 269.364 1457.65 267.47 1465.52 270.088C1474.94 273.221 1478.98 280.781 1479.41 281.633C1480.89 284.572 1481.05 286.841 1481.17 288.662C1481.31 290.602 1481.41 292.005 1483.08 293.018C1485.13 294.267 1487.46 293.602 1490.41 292.763C1493.62 291.849 1497.62 290.711 1502.95 291.5C1504.58 291.741 1508.9 292.381 1512.96 295.197C1520.16 300.192 1520.39 308.799 1520.45 308.784C1520.51 308.766 1520.5 300.202 1513.18 294.953Z" fill="white"/>
<path d="M1517.52 300.367C1512.8 297.922 1506.14 305.922 1495.49 309.118C1479.89 313.796 1463.44 315.743 1446.5 315.09C1432.96 314.567 1418.44 313.5 1405.5 309.816C1392.51 306.115 1381.48 299.156 1367.2 299.837C1339.76 301.144 1318.17 318.969 1292 324.122C1272.17 328.025 1252.06 322.863 1236.52 312.195C1234.35 313.519 1231.02 315.299 1226.62 316.715C1221.29 318.431 1213.11 321.062 1204.74 318.233C1196.7 315.512 1192.9 309.243 1191.67 306.952C1190.13 310.069 1187.83 315.879 1188.45 323.188C1188.45 323.188 1189.49 335.401 1199.53 344.679C1213.94 357.994 1237.93 356.34 1256.51 355.181C1267.94 354.469 1286.78 352 1308.37 342.614C1311.81 344.719 1318.6 348.266 1328.09 349.314C1342.63 350.92 1353.63 345.551 1357.02 343.737C1361.48 345.297 1368.41 347.502 1377.11 349.356C1392.86 352.708 1430.65 360.751 1459.82 343.509C1464.68 340.64 1471.9 335.528 1478.59 326.67C1482.85 327.307 1500.09 329.479 1512.4 320.344C1514.98 318.426 1520.12 314.677 1520.63 308.793C1520.69 308.118 1521.13 302.24 1517.52 300.367Z" fill="#CEEAF0"/>
<path d="M1373.73 285.242C1385.18 282.69 1395.09 284.709 1398.68 285.478C1406.88 287.233 1412.95 290.296 1416.63 292.495C1416.83 290.655 1418.61 277.052 1432.68 269.058C1446.95 260.949 1462.28 265.201 1465.27 266.029C1482.88 270.915 1489.77 284.502 1490.79 286.595C1492.95 286.093 1503.5 283.852 1513.75 289.095C1516.5 290.507 1527.48 296.678 1527.24 306.948C1526.98 318.491 1512.8 324.354 1511.83 324.738C1501.02 329.032 1487.33 326.6 1477.09 318.62C1470.69 325.693 1464.27 329.983 1459.94 332.478C1421.77 354.43 1371.9 336.601 1366.48 334.587C1362.48 333.095 1359.32 331.674 1357.36 330.754C1353.17 333.317 1342.72 338.919 1328.71 338.365C1323.37 338.154 1306.58 337.488 1300.96 327.02C1297.57 320.71 1299.48 313.14 1303.56 307.974C1309.17 300.884 1318 299.417 1320.39 299.056C1333.19 297.117 1342.72 304.044 1344.08 305.064C1346.32 301.852 1355.67 289.264 1373.73 285.242Z" fill="white"/>
<mask id="mask0_14_1736" style="mask-type:luminance" maskUnits="userSpaceOnUse" x="1293" y="0" width="728" height="645">
<path d="M1293 0H2020.96V644.797H1293V0Z" fill="white"/>
</mask>
<g mask="url(#mask0_14_1736)">
<path d="M1988.27 141.645C1917.64 141.645 1860.39 90.9304 1860.39 28.3708C1860.39 -34.1888 1917.64 -84.9033 1988.27 -84.9033C2058.9 -84.9033 2116.16 -34.1888 2116.16 28.3708C2116.16 90.9304 2058.9 141.645 1988.27 141.645Z" fill="#FFFF99"/>
<path opacity="0.29" d="M1988.27 175.892C1896.29 175.892 1821.73 109.845 1821.73 28.3712C1821.73 -53.1022 1896.29 -119.149 1988.27 -119.149C2080.26 -119.149 2154.82 -53.1022 2154.82 28.3712C2154.82 109.845 2080.26 175.892 1988.27 175.892Z" fill="white"/>
</g>
</g>
<defs>
<linearGradient id="paint0_linear_14_1736" x1="1028.49" y1="163.811" x2="1124.9" y2="526.527" gradientUnits="userSpaceOnUse">
<stop stop-color="#FFFF99"/>
<stop offset="1" stop-color="white" stop-opacity="0"/>
</linearGradient>
<linearGradient id="paint1_linear_14_1736" x1="1954.31" y1="-27.5189" x2="1627.6" y2="770.824" gradientUnits="userSpaceOnUse">
<stop stop-color="#FFFF99"/>
<stop offset="1" stop-color="white" stop-opacity="0"/>
</linearGradient>
<linearGradient id="paint2_linear_14_1736" x1="2021" y1="72.204" x2="0.000630692" y2="72.204" gradientUnits="userSpaceOnUse">
<stop stop-color="#FFFF99"/>
<stop offset="1" stop-color="white" stop-opacity="0"/>
</linearGradient>
<clipPath id="clip0_14_1736">
<rect width="2021" height="743" fill="white"/>
</clipPath>
</defs>
</svg>
